<svg width="72" height="72" viewBox="0 0 72 72" fill="none" xmlns="http://www.w3.org/2000/svg">
<path d="M64.9653 0H7.64445C3.85131 0 0.776367 3.07495 0.776367 6.86809V64.1889C0.776367 67.9821 3.85131 71.057 7.64445 71.057H64.9653C68.7584 71.057 71.8334 67.9821 71.8334 64.1889V6.86809C71.8334 3.07495 68.7584 0 64.9653 0Z" fill="#D3664A"/>
<path d="M59.2654 13.559C64.6688 19.8158 65.4246 30.9154 60.4734 41.223C55.9779 50.5866 48.0248 56.6843 40.4116 57.5017C35.0083 51.2448 34.2524 40.1452 39.2037 29.8377C43.6992 20.4741 51.6523 14.3763 59.2654 13.559Z" fill="#F9F7F0"/>
<path d="M9.10563 28.2499C14.0569 27.3168 21.0045 30.7635 26.2813 37.2301C31.0734 43.1036 33.1457 49.8307 32.0607 54.5107C27.1095 55.4438 20.1618 51.9971 14.8851 45.5304C10.093 39.6569 8.02063 32.9299 9.10563 28.2499Z" fill="#F9F7F0"/>
</svg>
